<svg width="17" height="17" viewBox="0 0 17 17" fill="none" xmlns="http://www.w3.org/2000/svg">
<path d="M8.25 13.75L11.9167 10.0833L10.6333 8.80001L9.16667 10.2667V6.41667H7.33333V10.2667L5.86667 8.80001L4.58333 10.0833L8.25 13.75ZM1.83333 16.5C1.32917 16.5 0.897722 16.3206 0.539 15.9619C0.180278 15.6032 0.000611111 15.1715 0 14.6667V3.23125C0 3.01737 0.0345277 2.81112 0.103583 2.6125C0.172639 2.41389 0.275611 2.23056 0.4125 2.0625L1.55833 0.664588C1.72639 0.450699 1.93631 0.28631 2.18808 0.171422C2.43986 0.0565327 2.70356 -0.000606261 2.97917 4.85009e-06H13.5208C13.7958 4.85009e-06 14.0595 0.0574493 14.3119 0.172338C14.5643 0.287227 14.7742 0.45131 14.9417 0.664588L16.0875 2.0625C16.225 2.23056 16.3283 2.41389 16.3973 2.6125C16.4664 2.81112 16.5006 3.01737 16.5 3.23125V14.6667C16.5 15.1708 16.3206 15.6026 15.9619 15.9619C15.6032 16.3213 15.1714 16.5006 14.6667 16.5H1.83333ZM2.2 2.75H14.3L13.5208 1.83334H2.97917L2.2 2.75Z" fill="black"/>
</svg>
