<svg width="20" height="20" viewBox="0 0 20 20" fill="none" xmlns="http://www.w3.org/2000/svg">
<path fill-rule="evenodd" clip-rule="evenodd" d="M0.123245 10.8159C0.410245 11.8189 1.18325 12.5909 2.72825 14.1359L4.55825 15.9659C7.24825 18.6569 8.59225 19.9999 10.2622 19.9999C11.9332 19.9999 13.2772 18.6559 15.9662 15.9669C18.6562 13.2769 20.0002 11.9329 20.0002 10.2619C20.0002 8.59187 18.6562 7.24687 15.9672 4.55787L14.1372 2.72787C12.5912 1.18287 11.8192 0.409866 10.8162 0.122866C9.81325 -0.165134 8.74825 0.0808662 6.61925 0.572866L5.39125 0.855866C3.59925 1.26887 2.70325 1.47587 2.08925 2.08887C1.47525 2.70187 1.27025 3.59987 0.856245 5.39087L0.572245 6.61887C0.0812454 8.74887 -0.163755 9.81287 0.123245 10.8159ZM8.12224 5.27087C8.31512 5.45687 8.469 5.67944 8.5749 5.92558C8.6808 6.17172 8.73659 6.4365 8.73902 6.70444C8.74145 6.97238 8.69046 7.23812 8.58904 7.48614C8.48763 7.73416 8.33781 7.95948 8.14833 8.14896C7.95886 8.33843 7.73354 8.48825 7.48552 8.58967C7.2375 8.69108 6.97176 8.74207 6.70382 8.73964C6.43588 8.73721 6.1711 8.68142 5.92496 8.57552C5.67882 8.46962 5.45625 8.31574 5.27025 8.12287C4.9033 7.74237 4.70039 7.23303 4.70518 6.70444C4.70998 6.17585 4.92208 5.67027 5.29587 5.29649C5.66965 4.9227 6.17523 4.7106 6.70382 4.7058C7.23241 4.70101 7.74175 4.90392 8.12224 5.27087ZM17.0502 10.0509L10.0712 17.0309C9.92973 17.1674 9.74024 17.2429 9.54359 17.2411C9.34695 17.2393 9.15887 17.1604 9.01988 17.0212C8.88089 16.8821 8.8021 16.694 8.80049 16.4973C8.79887 16.3007 8.87456 16.1113 9.01124 15.9699L15.9892 8.98987C16.1299 8.84917 16.3208 8.77013 16.5197 8.77013C16.7187 8.77013 16.9095 8.84917 17.0502 8.98987C17.1909 9.13056 17.27 9.32139 17.27 9.52037C17.27 9.71934 17.1909 9.91017 17.0502 10.0509Z" fill="white"/>
</svg>
